<?xml version="1.0" encoding="utf-8"?>
<!-- Generator: Adobe Illustrator 16.0.0, SVG Export Plug-In . SVG Version: 6.00 Build 0)  -->
<!DOCTYPE svg PUBLIC "-//W3C//DTD SVG 1.1//EN" "http://www.w3.org/Graphics/SVG/1.1/DTD/svg11.dtd">
<svg version="1.1" id="Layer_1" xmlns="http://www.w3.org/2000/svg" xmlns:xlink="http://www.w3.org/1999/xlink" x="0px" y="0px"
	 width="109.417px" height="27.25px" viewBox="0 0 109.417 27.25" enable-background="new 0 0 109.417 27.25" xml:space="preserve">
<g>
	<g>
		<path fill="#A2C322" d="M43.379,8.842c-0.396-1.535-2.378-2.413-5.423-2.413c-1.64,0-3.488,0.251-5.339,0.735
			c-4.256,1.109-8.343,4.051-9.604,5.019c-2.315-1.13-3.89-4.265-3.783-6.521c0.047-1.045,0.502-1.998,1.276-2.701
			c0.774-0.704,1.779-1.06,2.818-1.016c2.158,0.104,3.83,1.932,3.732,4.084c-0.021,0.453,0.322,0.832,0.773,0.846
			c0.446,0.026,0.833-0.317,0.853-0.771c0.144-3.045-2.226-5.634-5.282-5.777c-1.479-0.067-2.895,0.437-3.995,1.435
			c-1.095,0.99-1.737,2.348-1.805,3.823c-0.118,2.53,1.323,5.79,3.751,7.5c-0.286,0.124-0.567,0.237-0.808,0.326
			c-1.162-1.076-4.958-4.396-9.1-5.896C9.145,6.672,6.824,6.211,4.912,6.211c-2.338,0-3.878,0.699-4.341,1.962
			c-0.968,2.643,3.343,5.832,7.891,7.483c1.266,0.461,2.767,0.696,4.464,0.696l0,0c3.209,0,6.232-0.821,7.28-1.141
			c0.716,0.509,1.219,1.168,1.79,1.906c0.428,0.563,0.894,1.165,1.499,1.773c-0.154,0.02-0.312,0.044-0.465,0.072
			c-0.653,0.076-1.274,0.164-1.76,0.274c-1.283-0.779-4.301-2.547-5.468-2.603c-1.613-0.081-2.968,1.157-3.043,2.75
			c-0.034,0.777,0.233,1.517,0.754,2.095c0.526,0.569,1.241,0.903,2.017,0.944c0.032,0,0.064,0,0.102,0
			c1.137,0,4.067-0.957,5.319-1.396c1.969,1.404,1.39,5.022,1.384,5.057c-0.074,0.443,0.222,0.861,0.667,0.938
			c0.046,0.002,0.091,0.014,0.138,0.014c0.39,0,0.733-0.277,0.798-0.675c0.032-0.173,0.581-3.554-1.099-5.736
			c0.136-0.019,0.271-0.044,0.409-0.065c0.715-0.084,1.396-0.188,1.922-0.319c1.289,0.786,4.296,2.556,5.458,2.608
			c0.047,0,0.094,0.006,0.14,0.006c1.555,0,2.83-1.211,2.905-2.768c0.037-0.76-0.233-1.518-0.756-2.088
			c-0.522-0.57-1.238-0.904-2.015-0.943c-0.033,0-0.065,0-0.101,0c-1.144,0-4.123,0.986-5.356,1.409
			c-0.947-0.766-1.563-1.566-2.154-2.329c-0.419-0.546-0.822-1.07-1.312-1.551c0.418-0.181,0.834-0.378,1.196-0.563
			c1.185,0.483,4.951,1.882,8.693,1.882c1.072,0,2.065-0.116,2.954-0.346C39.502,14.334,44.1,11.565,43.379,8.842z M15.631,20.8
			h-0.025c-0.343-0.014-0.657-0.172-0.89-0.417c-0.229-0.251-0.347-0.583-0.329-0.918c0.03-0.688,0.59-1.21,1.276-1.21
			c0.02,0,0.041,0,0.062,0c0.424,0.014,1.924,0.759,3.471,1.645C17.762,20.356,16.197,20.8,15.631,20.8z M30.801,18.672h0.025
			c0.342,0.026,0.657,0.174,0.887,0.417c0.231,0.262,0.35,0.583,0.331,0.925c-0.03,0.695-0.627,1.239-1.336,1.214
			c-0.426-0.025-1.925-0.769-3.472-1.646C28.671,19.116,30.237,18.672,30.801,18.672z M12.926,14.726
			c-1.506,0-2.818-0.204-3.902-0.592C4.227,12.389,1.722,9.77,2.102,8.727C2.3,8.187,3.405,7.835,4.914,7.835
			c1.726,0,3.848,0.429,5.975,1.198c3.182,1.158,6.251,3.566,7.809,4.909C17.342,14.282,15.156,14.726,12.926,14.726z
			 M34.411,13.985c-0.754,0.199-1.611,0.297-2.542,0.297c-2.693,0-5.483-0.822-7.073-1.39c1.673-1.191,4.953-3.301,8.235-4.156
			c1.721-0.446,3.424-0.688,4.926-0.688c2.43,0,3.698,0.626,3.851,1.199C42.085,10.323,39.345,12.694,34.411,13.985z"/>
	</g>
</g>
<g>
	<path fill="#522111" d="M42.81,19.202c0.889,0,1.585,0.347,2.088,1.04c0.503,0.694,0.754,1.645,0.754,2.853
		c0,1.244-0.259,2.207-0.778,2.89c-0.519,0.683-1.225,1.024-2.118,1.024c-0.885,0-1.579-0.321-2.081-0.964h-0.142l-0.344,0.829
		h-1.569v-10.48h2.055v2.438c0,0.31-0.027,0.806-0.081,1.489h0.081C41.155,19.575,41.867,19.202,42.81,19.202z M42.15,20.846
		c-0.508,0-0.878,0.155-1.112,0.468s-0.354,0.827-0.363,1.546v0.223c0,0.808,0.12,1.387,0.36,1.737
		c0.24,0.351,0.621,0.525,1.142,0.525c0.422,0,0.758-0.194,1.007-0.583c0.249-0.388,0.374-0.953,0.374-1.693
		c0-0.741-0.126-1.297-0.377-1.667C42.929,21.03,42.585,20.846,42.15,20.846z"/>
	<path fill="#522111" d="M50.758,27.009c-1.212,0-2.16-0.335-2.842-1.004s-1.024-1.616-1.024-2.843c0-1.262,0.315-2.237,0.946-2.927
		c0.631-0.688,1.503-1.033,2.617-1.033c1.064,0,1.893,0.303,2.486,0.909c0.593,0.606,0.889,1.443,0.889,2.513v0.996h-4.856
		c0.022,0.584,0.195,1.04,0.519,1.367c0.323,0.328,0.777,0.492,1.36,0.492c0.454,0,0.882-0.047,1.287-0.142
		c0.404-0.094,0.826-0.244,1.267-0.451v1.59c-0.359,0.18-0.744,0.313-1.152,0.4C51.845,26.965,51.347,27.009,50.758,27.009z
		 M50.469,20.663c-0.436,0-0.777,0.139-1.024,0.415c-0.247,0.275-0.388,0.668-0.424,1.175h2.883
		c-0.009-0.507-0.141-0.899-0.397-1.175C51.25,20.802,50.904,20.663,50.469,20.663z"/>
	<path fill="#522111" d="M58.908,27.009c-1.212,0-2.16-0.335-2.842-1.004s-1.024-1.616-1.024-2.843c0-1.262,0.315-2.237,0.946-2.927
		c0.631-0.688,1.503-1.033,2.617-1.033c1.064,0,1.893,0.303,2.486,0.909c0.593,0.606,0.89,1.443,0.89,2.513v0.996h-4.857
		c0.022,0.584,0.195,1.04,0.519,1.367c0.323,0.328,0.777,0.492,1.36,0.492c0.454,0,0.882-0.047,1.287-0.142
		c0.404-0.094,0.826-0.244,1.267-0.451v1.59c-0.359,0.18-0.744,0.313-1.152,0.4C59.995,26.965,59.497,27.009,58.908,27.009z
		 M58.619,20.663c-0.436,0-0.777,0.139-1.024,0.415c-0.247,0.275-0.388,0.668-0.424,1.175h2.883
		c-0.009-0.507-0.141-0.899-0.397-1.175C59.4,20.802,59.054,20.663,58.619,20.663z"/>
	<path fill="#522111" d="M70.602,26.874h-2.054v-4.398c0-0.544-0.097-0.951-0.29-1.223s-0.501-0.407-0.923-0.407
		c-0.574,0-0.99,0.191-1.246,0.575c-0.256,0.385-0.384,1.021-0.384,1.91v3.543H63.65v-7.53h1.569l0.276,0.963h0.114
		c0.229-0.364,0.545-0.639,0.947-0.825c0.401-0.186,0.858-0.279,1.37-0.279c0.876,0,1.54,0.237,1.994,0.71
		c0.453,0.475,0.68,1.158,0.68,2.052V26.874z"/>
	<path fill="#522111" d="M77.499,26.874l-0.397-1.024h-0.054c-0.346,0.436-0.701,0.738-1.067,0.906s-0.843,0.253-1.432,0.253
		c-0.723,0-1.292-0.207-1.707-0.62s-0.623-1.001-0.623-1.765c0-0.799,0.279-1.389,0.839-1.769c0.559-0.379,1.401-0.589,2.529-0.629
		l1.307-0.041v-0.33c0-0.763-0.391-1.145-1.172-1.145c-0.603,0-1.31,0.182-2.122,0.545l-0.681-1.387
		c0.867-0.454,1.828-0.681,2.883-0.681c1.011,0,1.785,0.22,2.324,0.66c0.539,0.44,0.809,1.109,0.809,2.007v5.019H77.499z
		 M76.894,23.385l-0.795,0.027c-0.598,0.018-1.042,0.125-1.334,0.323c-0.292,0.197-0.438,0.498-0.438,0.902
		c0,0.579,0.332,0.869,0.997,0.869c0.476,0,0.856-0.138,1.142-0.411c0.285-0.274,0.428-0.638,0.428-1.092V23.385z"/>
	<path fill="#522111" d="M84.222,25.372c0.359,0,0.79-0.079,1.293-0.236v1.529c-0.512,0.229-1.141,0.344-1.886,0.344
		c-0.821,0-1.42-0.208-1.795-0.623c-0.375-0.416-0.563-1.039-0.563-1.869v-3.631h-0.983v-0.869l1.132-0.687l0.593-1.59h1.313v1.604
		h2.107v1.542h-2.107v3.631c0,0.292,0.081,0.507,0.245,0.646C83.735,25.302,83.952,25.372,84.222,25.372z"/>
	<path fill="#522111" d="M92.372,26.874l-0.276-0.964h-0.108c-0.22,0.351-0.532,0.621-0.936,0.813
		c-0.404,0.19-0.865,0.286-1.381,0.286c-0.885,0-1.552-0.237-2.001-0.711s-0.674-1.155-0.674-2.044v-4.91h2.055v4.397
		c0,0.544,0.097,0.951,0.29,1.223c0.192,0.272,0.5,0.408,0.923,0.408c0.574,0,0.99-0.192,1.246-0.576s0.384-1.021,0.384-1.909
		v-3.543h2.054v7.53H92.372z"/>
	<path fill="#522111" d="M100.307,19.202c0.278,0,0.51,0.02,0.693,0.061l-0.154,1.926c-0.167-0.045-0.369-0.067-0.606-0.067
		c-0.656,0-1.167,0.169-1.532,0.506c-0.366,0.337-0.549,0.808-0.549,1.414v3.833h-2.055v-7.53h1.556l0.303,1.266h0.102
		c0.233-0.422,0.549-0.762,0.946-1.021C99.407,19.331,99.839,19.202,100.307,19.202z"/>
	<path fill="#522111" d="M105.775,27.009c-1.212,0-2.159-0.335-2.842-1.004s-1.024-1.616-1.024-2.843
		c0-1.262,0.315-2.237,0.946-2.927c0.631-0.688,1.504-1.033,2.617-1.033c1.064,0,1.893,0.303,2.485,0.909
		c0.593,0.606,0.89,1.443,0.89,2.513v0.996h-4.856c0.022,0.584,0.195,1.04,0.519,1.367c0.323,0.328,0.776,0.492,1.36,0.492
		c0.453,0,0.882-0.047,1.286-0.142c0.404-0.094,0.826-0.244,1.267-0.451v1.59c-0.359,0.18-0.743,0.313-1.151,0.4
		C106.862,26.965,106.364,27.009,105.775,27.009z M105.486,20.663c-0.436,0-0.777,0.139-1.024,0.415
		c-0.247,0.275-0.388,0.668-0.424,1.175h2.883c-0.009-0.507-0.142-0.899-0.397-1.175C106.268,20.802,105.922,20.663,105.486,20.663z
		"/>
</g>
</svg>
